ffmpeg started on 2025-06-06 at 15:16:31
Report written to "D:\Convert\FFMetrics\reports\ssim_report-6.txt"
Log level: 32
Command line:
ffmpeg -hide_banner -nostdin -i "G:\\\xc0\xed\xe8\xec\xe5\\\xce\xed\xe3\xee\xe8\xed\xe3\xe8\\!_36_\xce\xf1\xe5\xed\xfc_2024\\DreamCast\\\xcd\xe8\xed\xe0 \xe2 \xea\xee\xf0\xee\xeb\xe5\xe2\xf1\xf2\xe2\xe5 \xe7\xe2\xb8\xe7\xe4\\[DC] Hoshi Furu Oukoku no Nina - 04_Telegram_HEVC.mkv" -i "G:\\\xc0\xed\xe8\xec\xe5\\\xce\xed\xe3\xee\xe8\xed\xe3\xe8\\!_36_\xce\xf1\xe5\xed\xfc_2024\\DreamCast\\\xcd\xe8\xed\xe0 \xe2 \xea\xee\xf0\xee\xeb\xe5\xe2\xf1\xf2\xe2\xe5 \xe7\xe2\xb8\xe7\xe4\\[DC] Hoshi Furu Oukoku no Nina - 04_Telegram.mp4" -lavfi "[0:v]settb=AVTB,setpts=PTS-STARTPTS,format=pix_fmts=yuv420p10,fps=24000/1001,scale=1920:1080:flags=bicubic[main];[1:v]settb=AVTB,setpts=PTS-STARTPTS,format=pix_fmts=yuv420p,fps=24000/1001,scale=1920:1080:flags=bicubic[ref];[main][ref]ssim=eof_action=endall:stats_file='D\\:/Convert/FFMetrics/logs/ssim_logfile-6.txt'" -f null -
Input #0, matroska,webm, from 'G:\Аниме\Онгоинги\!_36_Осень_2024\DreamCast\Нина в королевстве звёзд\[DC] Hoshi Furu Oukoku no Nina - 04_Telegram_HEVC.mkv':
  Metadata:
    COMPATIBLE_BRANDS: isomiso2avc1mp41
    MAJOR_BRAND     : isom
    MINOR_VERSION   : 512
    ENCODER         : Lavf61.7.100
  Duration: 00:23:46.60, start: -0.021000, bitrate: 906 kb/s
  Stream #0:0: Video: hevc (Main 10), yuv420p10le(tv, bt709, progressive), 1920x1080 [SAR 1:1 DAR 16:9], 23.98 fps, 23.98 tbr, 1k tbn (default)
      Metadata:
        HANDLER_NAME    : VideoHandler
        VENDOR_ID       : [0][0][0][0]
        ENCODER         : Lavc61.19.100 libx265
        BPS             : 708479
        DURATION        : 00:23:46.508708333
        NUMBER_OF_FRAMES: 34202
        NUMBER_OF_BYTES : 126331486
        _STATISTICS_WRITING_APP: mkvpropedit v66.0.0 ('Josie') 64-bit
        _STATISTICS_WRITING_DATE_UTC: 2025-06-01 12:20:51
        _STATISTICS_TAGS: BPS DURATION NUMBER_OF_FRAMES NUMBER_OF_BYTES
  Stream #0:1: Audio: aac (LC), 48000 Hz, stereo, fltp (default)
      Metadata:
        HANDLER_NAME    : SoundHandler
        VENDOR_ID       : [0][0][0][0]
        ENCODER         : Lavc61.19.100 aac
        BPS             : 193905
        DURATION        : 00:23:46.602000000
        NUMBER_OF_FRAMES: 66873
        NUMBER_OF_BYTES : 34578256
        _STATISTICS_WRITING_APP: mkvpropedit v66.0.0 ('Josie') 64-bit
        _STATISTICS_WRITING_DATE_UTC: 2025-06-01 12:20:51
        _STATISTICS_TAGS: BPS DURATION NUMBER_OF_FRAMES NUMBER_OF_BYTES
Input #1, mov,mp4,m4a,3gp,3g2,mj2, from 'G:\Аниме\Онгоинги\!_36_Осень_2024\DreamCast\Нина в королевстве звёзд\[DC] Hoshi Furu Oukoku no Nina - 04_Telegram.mp4':
  Metadata:
    major_brand     : isom
    minor_version   : 512
    compatible_brands: isomiso2avc1mp41
    encoder         : Lavf61.1.100
  Duration: 00:23:46.57, start: 0.000000, bitrate: 3861 kb/s
  Stream #1:0[0x1](und): Video: h264 (High) (avc1 / 0x31637661), yuv420p(tv, bt709, progressive), 1920x1080 [SAR 1:1 DAR 16:9], 3713 kb/s, 23.98 fps, 23.98 tbr, 24k tbn (default)
      Metadata:
        handler_name    : VideoHandler
        vendor_id       : [0][0][0][0]
        encoder         : Lavc61.3.100 h264_qsv
  Stream #1:1[0x2](und): Audio: aac (HE-AACv2) (mp4a / 0x6134706D), 48000 Hz, stereo, fltp, 144 kb/s (default)
      Metadata:
        handler_name    : SoundHandler
        vendor_id       : [0][0][0][0]
Stream mapping:
  Stream #0:0 (hevc) -> settb:default
  Stream #1:0 (h264) -> settb:default
  ssim:default -> Stream #0:0 (wrapped_avframe)
  Stream #0:1 -> #0:1 (aac (native) -> pcm_s16le (native))
Output #0, null, to 'pipe:':
  Metadata:
    COMPATIBLE_BRANDS: isomiso2avc1mp41
    MAJOR_BRAND     : isom
    MINOR_VERSION   : 512
    encoder         : Lavf61.7.100
  Stream #0:0: Video: wrapped_avframe, yuv420p10le(tv, bt709, progressive), 1920x1080 [SAR 1:1 DAR 16:9], q=2-31, 200 kb/s, 23.98 fps, 23.98 tbn
      Metadata:
        encoder         : Lavc61.19.100 wrapped_avframe
  Stream #0:1: Audio: pcm_s16le, 48000 Hz, stereo, s16, 1536 kb/s (default)
      Metadata:
        HANDLER_NAME    : SoundHandler
        VENDOR_ID       : [0][0][0][0]
        _STATISTICS_TAGS: BPS DURATION NUMBER_OF_FRAMES NUMBER_OF_BYTES
        BPS             : 193905
        DURATION        : 00:23:46.602000000
        NUMBER_OF_FRAMES: 66873
        NUMBER_OF_BYTES : 34578256
        _STATISTICS_WRITING_APP: mkvpropedit v66.0.0 ('Josie') 64-bit
        _STATISTICS_WRITING_DATE_UTC: 2025-06-01 12:20:51
        encoder         : Lavc61.19.100 pcm_s16le
frame=  179 fps=0.0 q=-0.0 size=N/A time=00:00:07.46 bitrate=N/A speed=14.4x    frame=  406 fps=397 q=-0.0 size=N/A time=00:00:16.93 bitrate=N/A speed=16.6x    frame=  663 fps=428 q=-0.0 size=N/A time=00:00:27.65 bitrate=N/A speed=17.9x    frame=  902 fps=438 q=-0.0 size=N/A time=00:00:37.62 bitrate=N/A speed=18.3x    frame= 1135 fps=442 q=-0.0 size=N/A time=00:00:47.33 bitrate=N/A speed=18.4x    frame= 1390 fps=449 q=-0.0 size=N/A time=00:00:57.97 bitrate=N/A speed=18.7x    frame= 1629 fps=452 q=-0.0 size=N/A time=00:01:07.94 bitrate=N/A speed=18.8x    frame= 1889 fps=458 q=-0.0 size=N/A time=00:01:18.78 bitrate=N/A speed=19.1x    frame= 2154 fps=465 q=-0.0 size=N/A time=00:01:29.83 bitrate=N/A speed=19.4x    frame= 2400 fps=465 q=-0.0 size=N/A time=00:01:40.10 bitrate=N/A speed=19.4x    frame= 2630 fps=464 q=-0.0 size=N/A time=00:01:49.69 bitrate=N/A speed=19.4x    frame= 2861 fps=462 q=-0.0 size=N/A time=00:01:59.32 bitrate=N/A speed=19.3x    frame= 3096 fps=462 q=-0.0 size=N/A time=00:02:09.12 bitrate=N/A speed=19.3x    frame= 3265 fps=452 q=-0.0 size=N/A time=00:02:16.17 bitrate=N/A speed=18.9x    frame= 3461 fps=448 q=-0.0 size=N/A time=00:02:24.35 bitrate=N/A speed=18.7x    frame= 3649 fps=442 q=-0.0 size=N/A time=00:02:32.19 bitrate=N/A speed=18.4x    frame= 3853 fps=440 q=-0.0 size=N/A time=00:02:40.70 bitrate=N/A speed=18.3x    frame= 4023 fps=433 q=-0.0 size=N/A time=00:02:47.79 bitrate=N/A speed=18.1x    frame= 4201 fps=429 q=-0.0 size=N/A time=00:02:55.21 bitrate=N/A speed=17.9x    frame= 4387 fps=426 q=-0.0 size=N/A time=00:03:02.97 bitrate=N/A speed=17.8x    frame= 4617 fps=426 q=-0.0 size=N/A time=00:03:12.56 bitrate=N/A speed=17.8x    frame= 4812 fps=424 q=-0.0 size=N/A time=00:03:20.70 bitrate=N/A speed=17.7x    frame= 5062 fps=427 q=-0.0 size=N/A time=00:03:31.12 bitrate=N/A speed=17.8x    frame= 5289 fps=427 q=-0.0 size=N/A time=00:03:40.59 bitrate=N/A speed=17.8x    frame= 5519 fps=428 q=-0.0 size=N/A time=00:03:50.18 bitrate=N/A speed=17.9x    frame= 5784 fps=431 q=-0.0 size=N/A time=00:04:01.24 bitrate=N/A speed=  18x    frame= 6009 fps=432 q=-0.0 size=N/A time=00:04:10.62 bitrate=N/A speed=  18x    frame= 6217 fps=431 q=-0.0 size=N/A time=00:04:19.30 bitrate=N/A speed=  18x    frame= 6467 fps=433 q=-0.0 size=N/A time=00:04:29.72 bitrate=N/A speed=  18x    frame= 6699 fps=433 q=-0.0 size=N/A time=00:04:39.40 bitrate=N/A speed=18.1x    frame= 6956 fps=435 q=-0.0 size=N/A time=00:04:50.12 bitrate=N/A speed=18.2x    frame= 7193 fps=436 q=-0.0 size=N/A time=00:05:00.00 bitrate=N/A speed=18.2x    frame= 7436 fps=437 q=-0.0 size=N/A time=00:05:10.14 bitrate=N/A speed=18.2x    frame= 7676 fps=438 q=-0.0 size=N/A time=00:05:20.15 bitrate=N/A speed=18.3x    frame= 7963 fps=441 q=-0.0 size=N/A time=00:05:32.12 bitrate=N/A speed=18.4x    frame= 8209 fps=442 q=-0.0 size=N/A time=00:05:42.38 bitrate=N/A speed=18.5x    frame= 8473 fps=444 q=-0.0 size=N/A time=00:05:53.39 bitrate=N/A speed=18.5x    frame= 8743 fps=446 q=-0.0 size=N/A time=00:06:04.65 bitrate=N/A speed=18.6x    frame= 9010 fps=448 q=-0.0 size=N/A time=00:06:15.79 bitrate=N/A speed=18.7x    frame= 9288 fps=450 q=-0.0 size=N/A time=00:06:27.38 bitrate=N/A speed=18.8x    frame= 9534 fps=451 q=-0.0 size=N/A time=00:06:37.64 bitrate=N/A speed=18.8x    frame= 9790 fps=452 q=-0.0 size=N/A time=00:06:48.32 bitrate=N/A speed=18.9x    frame=10062 fps=454 q=-0.0 size=N/A time=00:06:59.66 bitrate=N/A speed=18.9x    frame=10305 fps=454 q=-0.0 size=N/A time=00:07:09.80 bitrate=N/A speed=  19x    frame=10596 fps=457 q=-0.0 size=N/A time=00:07:21.94 bitrate=N/A speed=  19x    frame=10873 fps=459 q=-0.0 size=N/A time=00:07:33.49 bitrate=N/A speed=19.1x    frame=11157 fps=460 q=-0.0 size=N/A time=00:07:45.33 bitrate=N/A speed=19.2x    frame=11442 fps=462 q=-0.0 size=N/A time=00:07:57.22 bitrate=N/A speed=19.3x    frame=11705 fps=463 q=-0.0 size=N/A time=00:08:08.19 bitrate=N/A speed=19.3x    frame=11955 fps=464 q=-0.0 size=N/A time=00:08:18.62 bitrate=N/A speed=19.3x    frame=12193 fps=464 q=-0.0 size=N/A time=00:08:28.54 bitrate=N/A speed=19.3x    frame=12450 fps=464 q=-0.0 size=N/A time=00:08:39.26 bitrate=N/A speed=19.4x    frame=12716 fps=465 q=-0.0 size=N/A time=00:08:50.36 bitrate=N/A speed=19.4x    frame=12970 fps=466 q=-0.0 size=N/A time=00:09:00.95 bitrate=N/A speed=19.4x    frame=13222 fps=466 q=-0.0 size=N/A time=00:09:11.46 bitrate=N/A speed=19.4x    frame=13480 fps=467 q=-0.0 size=N/A time=00:09:22.22 bitrate=N/A speed=19.5x    frame=13747 fps=468 q=-0.0 size=N/A time=00:09:33.36 bitrate=N/A speed=19.5x    frame=13984 fps=468 q=-0.0 size=N/A time=00:09:43.24 bitrate=N/A speed=19.5x    frame=14252 fps=468 q=-0.0 size=N/A time=00:09:54.42 bitrate=N/A speed=19.5x    frame=14514 fps=469 q=-0.0 size=N/A time=00:10:05.35 bitrate=N/A speed=19.6x    frame=14795 fps=470 q=-0.0 size=N/A time=00:10:17.07 bitrate=N/A speed=19.6x    frame=15059 fps=471 q=-0.0 size=N/A time=00:10:28.08 bitrate=N/A speed=19.6x    frame=15307 fps=471 q=-0.0 size=N/A time=00:10:38.42 bitrate=N/A speed=19.7x    frame=15547 fps=471 q=-0.0 size=N/A time=00:10:48.43 bitrate=N/A speed=19.7x    frame=15806 fps=472 q=-0.0 size=N/A time=00:10:59.24 bitrate=N/A speed=19.7x    frame=16058 fps=472 q=-0.0 size=N/A time=00:11:09.75 bitrate=N/A speed=19.7x    frame=16331 fps=473 q=-0.0 size=N/A time=00:11:21.13 bitrate=N/A speed=19.7x    frame=16562 fps=472 q=-0.0 size=N/A time=00:11:30.77 bitrate=N/A speed=19.7x    frame=16796 fps=472 q=-0.0 size=N/A time=00:11:40.53 bitrate=N/A speed=19.7x    frame=17047 fps=472 q=-0.0 size=N/A time=00:11:51.00 bitrate=N/A speed=19.7x    frame=17316 fps=473 q=-0.0 size=N/A time=00:12:02.22 bitrate=N/A speed=19.7x    frame=17593 fps=474 q=-0.0 size=N/A time=00:12:13.77 bitrate=N/A speed=19.8x    frame=17866 fps=474 q=-0.0 size=N/A time=00:12:25.16 bitrate=N/A speed=19.8x    frame=18137 fps=475 q=-0.0 size=N/A time=00:12:36.46 bitrate=N/A speed=19.8x    frame=18385 fps=475 q=-0.0 size=N/A time=00:12:46.80 bitrate=N/A speed=19.8x    frame=18642 fps=476 q=-0.0 size=N/A time=00:12:57.52 bitrate=N/A speed=19.8x    frame=18902 fps=476 q=-0.0 size=N/A time=00:13:08.37 bitrate=N/A speed=19.9x    frame=19144 fps=476 q=-0.0 size=N/A time=00:13:18.46 bitrate=N/A speed=19.8x    frame=19369 fps=475 q=-0.0 size=N/A time=00:13:27.84 bitrate=N/A speed=19.8x    frame=19615 fps=475 q=-0.0 size=N/A time=00:13:38.10 bitrate=N/A speed=19.8x    frame=19871 fps=476 q=-0.0 size=N/A time=00:13:48.78 bitrate=N/A speed=19.8x    frame=20111 fps=476 q=-0.0 size=N/A time=00:13:58.79 bitrate=N/A speed=19.8x    frame=20352 fps=475 q=-0.0 size=N/A time=00:14:08.84 bitrate=N/A speed=19.8x    frame=20567 fps=475 q=-0.0 size=N/A time=00:14:17.81 bitrate=N/A speed=19.8x    frame=20771 fps=474 q=-0.0 size=N/A time=00:14:26.32 bitrate=N/A speed=19.8x    frame=21016 fps=474 q=-0.0 size=N/A time=00:14:36.54 bitrate=N/A speed=19.8x    frame=21241 fps=473 q=-0.0 size=N/A time=00:14:45.92 bitrate=N/A speed=19.7x    frame=21470 fps=473 q=-0.0 size=N/A time=00:14:55.47 bitrate=N/A speed=19.7x    frame=21711 fps=473 q=-0.0 size=N/A time=00:15:05.52 bitrate=N/A speed=19.7x    frame=21939 fps=473 q=-0.0 size=N/A time=00:15:15.03 bitrate=N/A speed=19.7x    frame=22167 fps=472 q=-0.0 size=N/A time=00:15:24.54 bitrate=N/A speed=19.7x    frame=22413 fps=472 q=-0.0 size=N/A time=00:15:34.80 bitrate=N/A speed=19.7x    frame=22685 fps=473 q=-0.0 size=N/A time=00:15:46.15 bitrate=N/A speed=19.7x    frame=22947 fps=473 q=-0.0 size=N/A time=00:15:57.08 bitrate=N/A speed=19.7x    frame=23196 fps=473 q=-0.0 size=N/A time=00:16:07.46 bitrate=N/A speed=19.7x    frame=23432 fps=473 q=-0.0 size=N/A time=00:16:17.30 bitrate=N/A speed=19.7x    frame=23685 fps=473 q=-0.0 size=N/A time=00:16:27.86 bitrate=N/A speed=19.7x    frame=23923 fps=473 q=-0.0 size=N/A time=00:16:37.78 bitrate=N/A speed=19.7x    frame=24168 fps=473 q=-0.0 size=N/A time=00:16:48.00 bitrate=N/A speed=19.7x    frame=24380 fps=473 q=-0.0 size=N/A time=00:16:56.84 bitrate=N/A speed=19.7x    frame=24640 fps=473 q=-0.0 size=N/A time=00:17:07.69 bitrate=N/A speed=19.7x    frame=24873 fps=473 q=-0.0 size=N/A time=00:17:17.41 bitrate=N/A speed=19.7x    frame=25116 fps=473 q=-0.0 size=N/A time=00:17:27.54 bitrate=N/A speed=19.7x    frame=25357 fps=473 q=-0.0 size=N/A time=00:17:37.59 bitrate=N/A speed=19.7x    frame=25567 fps=472 q=-0.0 size=N/A time=00:17:46.35 bitrate=N/A speed=19.7x    frame=25817 fps=472 q=-0.0 size=N/A time=00:17:56.78 bitrate=N/A speed=19.7x    frame=26069 fps=472 q=-0.0 size=N/A time=00:18:07.29 bitrate=N/A speed=19.7x    frame=26326 fps=473 q=-0.0 size=N/A time=00:18:18.01 bitrate=N/A speed=19.7x    frame=26570 fps=473 q=-0.0 size=N/A time=00:18:28.19 bitrate=N/A speed=19.7x    frame=26847 fps=473 q=-0.0 size=N/A time=00:18:39.74 bitrate=N/A speed=19.7x    frame=27100 fps=473 q=-0.0 size=N/A time=00:18:50.29 bitrate=N/A speed=19.7x    frame=27359 fps=474 q=-0.0 size=N/A time=00:19:01.09 bitrate=N/A speed=19.8x    frame=27611 fps=474 q=-0.0 size=N/A time=00:19:11.60 bitrate=N/A speed=19.8x    frame=27856 fps=474 q=-0.0 size=N/A time=00:19:21.82 bitrate=N/A speed=19.8x    frame=28073 fps=473 q=-0.0 size=N/A time=00:19:30.87 bitrate=N/A speed=19.7x    frame=28302 fps=473 q=-0.0 size=N/A time=00:19:40.42 bitrate=N/A speed=19.7x    frame=28494 fps=472 q=-0.0 size=N/A time=00:19:48.43 bitrate=N/A speed=19.7x    frame=28701 fps=472 q=-0.0 size=N/A time=00:19:57.07 bitrate=N/A speed=19.7x    frame=28884 fps=471 q=-0.0 size=N/A time=00:20:04.70 bitrate=N/A speed=19.6x    frame=29094 fps=470 q=-0.0 size=N/A time=00:20:13.46 bitrate=N/A speed=19.6x    frame=29337 fps=470 q=-0.0 size=N/A time=00:20:23.59 bitrate=N/A speed=19.6x    frame=29548 fps=470 q=-0.0 size=N/A time=00:20:32.39 bitrate=N/A speed=19.6x    frame=29752 fps=469 q=-0.0 size=N/A time=00:20:40.90 bitrate=N/A speed=19.6x    frame=29958 fps=468 q=-0.0 size=N/A time=00:20:49.49 bitrate=N/A speed=19.5x    frame=30196 fps=468 q=-0.0 size=N/A time=00:20:59.42 bitrate=N/A speed=19.5x    frame=30420 fps=468 q=-0.0 size=N/A time=00:21:08.76 bitrate=N/A speed=19.5x    frame=30653 fps=468 q=-0.0 size=N/A time=00:21:18.48 bitrate=N/A speed=19.5x    frame=30901 fps=468 q=-0.0 size=N/A time=00:21:28.82 bitrate=N/A speed=19.5x    frame=31145 fps=468 q=-0.0 size=N/A time=00:21:39.00 bitrate=N/A speed=19.5x    frame=31391 fps=468 q=-0.0 size=N/A time=00:21:49.26 bitrate=N/A speed=19.5x    frame=31619 fps=468 q=-0.0 size=N/A time=00:21:58.77 bitrate=N/A speed=19.5x    frame=31860 fps=468 q=-0.0 size=N/A time=00:22:08.82 bitrate=N/A speed=19.5x    frame=32113 fps=468 q=-0.0 size=N/A time=00:22:19.37 bitrate=N/A speed=19.5x    frame=32346 fps=468 q=-0.0 size=N/A time=00:22:29.09 bitrate=N/A speed=19.5x    frame=32580 fps=468 q=-0.0 size=N/A time=00:22:38.85 bitrate=N/A speed=19.5x    frame=32823 fps=468 q=-0.0 size=N/A time=00:22:48.99 bitrate=N/A speed=19.5x    frame=33059 fps=468 q=-0.0 size=N/A time=00:22:58.83 bitrate=N/A speed=19.5x    frame=33319 fps=468 q=-0.0 size=N/A time=00:23:09.67 bitrate=N/A speed=19.5x    frame=33583 fps=468 q=-0.0 size=N/A time=00:23:20.69 bitrate=N/A speed=19.5x    frame=33845 fps=469 q=-0.0 size=N/A time=00:23:31.61 bitrate=N/A speed=19.5x    frame=34081 fps=469 q=-0.0 size=N/A time=00:23:41.46 bitrate=N/A speed=19.5x    [Parsed_ssim_10 @ 000001dd18d4dc40] SSIM Y:0.994828 (22.863773) U:0.993883 (22.134841) V:0.994165 (22.339656) All:0.994560 (22.644292)
[out#0/null @ 000001dd187e4680] video:14696KiB audio:267492KiB subtitle:0KiB other streams:0KiB global headers:0KiB muxing overhead: unknown
frame=34202 fps=469 q=-0.0 Lsize=N/A time=00:23:46.50 bitrate=N/A speed=19.5x    
